<svg height="70" viewBox="0 0 70 70" width="70" xmlns="http://www.w3.org/2000/svg"><g fill="none"><g fill="#fff" transform="translate(.40856)"><path d="m67.8344942 37.9681092-1.2812452-.1251267c-2.6642218 0-15.6422762-8.8261404-23.7596887-15.6697661-6.35107-5.3532944-20.7293969-13.0732164-29.3814786-13.44000003-.5510117-.45506822-1.3502918-.44155945-1.8855058.03206628-6.26077823 5.51212475-10.33058368 13.09927875-11.46433855 21.37237815-.10826848.7964718.44846304 1.530039 1.24338522 1.6385185.37424124.0510332.7535214-.0459844 1.05762646-.2703119 4.78219844-3.5222417 14.68352137-1.3944054 28.63476657 6.1625926 19.204105 10.4155361 25.0786576 11.8185381 28.2919844 11.8185381h5.5200584c.7215175.2641715 1.5236576-.080234 1.8303502-.785965 1.281926-2.9473684 2.1257393-6.0672124 2.5043385-9.2597855v-.0290644c-.0023152-.7469395-.5684436-1.3707992-1.3102529-1.444074z"/><path d="m63.2934825 53.0411696c-.3547665-.4898636-.9716926-.7135088-1.5572957-.5647758-3.6534825.8988109-7.4002529 1.3611111-11.1622763 1.3769395-5.5840661 0-12.3476459-2.1308382-22.606323-7.1289473-7.6058949-3.7056336-20.62752913-8.2816959-25.78451357-5.9093373l-.44451362.0785965c-.69128405.1408187-1.18877432.7487135-1.19123601 1.4555361 0 .1076608.01131383.2151852.03487414.3202534 2.05805448 8.96846 7.56 16.7631579 15.31392996 21.6954971.615428.3950292 1.4279183.2703119 1.8972179-.2910527 1.2575486-1.6435672 3.1268483-2.705575 5.1801362-2.9430019 2.0494747.2045419 4.0744358.6081676 6.0460117 1.2051462 6.8138326 1.9237037 13.8412062 2.9847563 20.9182879 3.15846.4436965.270039.9975681.2821833 1.4527043.0320663 4.7691245-2.614152 8.8514591-6.3242885 11.9118482-10.8259844.3427821-.5007797.3392413-1.1621637-.0088521-1.6593957z"/><path d="m34.5948444.00011083c-3.2566343-.00993539-6.4977432.451819-9.6224125 1.3712342-.7693191.22787524-1.2086576 1.03758285-.9812257 1.80840156.0016343.00559454.0034047.01118908.0050389.01678362l.1161674.37838207c.2364202.76822612 1.0494552 1.1988694 1.8161867.9619883.0106226-.00327485.021109-.00668616.0315954-.01009746 2.6147859-.87329435 12.1674708 1.07128655 23.5853696 12.51717348 3.6122179 3.6738402 6.9652724 7.5946589 10.0349222 11.7342105 2.8181128 3.6853022 4.5177237 5.9063353 6.6241245 6.1276609.1156226.0148732.2320623.0236062.3486381.0261988.8703697-.0201949 1.703288-.358733 2.3417315-.9518909.3457783-.2965107.5328989-.738343.5055253-1.1935477-1.1555447-18.4160039-16.3891245-32.76586746-34.8056614-32.78649737z"/></g><g fill="#4299e1" transform="translate(0 1.22807)"><path d="m69.8062062 31.5731384c-.0360895-.8030214-.7151167-1.4246979-1.5165758-1.3884016-.3241246.0146004-.6339495.1375439-.8803113.3491813-.1423152.1222612-.3340662.2678558-.4852335.2532554-.8715953-.0901949-2.6873735-2.480156-4.6194552-5.0039766-3.1479572-4.2451657-6.5884436-8.2643665-10.2964008-12.0281287-11.0402529-11.06177385-20.918288-14.07177385-25.4622957-13.45760231-.3468678-.21682262-.7697277-.27508772-1.1620818-.16005848-5.0096303 1.43834308-9.6300389 3.99286549-13.5155836 7.47253411-.5651751.56805068-.5651751 1.48705653 0 2.05510721l.3196303.32025341c.2712841.27426906.640214.42914226 1.0256226.43077976 7.1906615 0 21.26107 6.9863547 28.1176654 12.7588304 4.9709533 4.1889473 20.9270039 16.3509357 25.4767315 16.3509357l1.1330739.1164527h.1510311c.7320039.0064907 1.3546499-.5335872 1.4527043-1.2604683.2138133-1.5500975.321537-3.1130215.3224903-4.6779922 0-.7218324-.029144-1.4553997-.0610117-2.1307018z"/><path d="m66.090214 45.4672515c-.1834436-.0794152-.3811868-.120078-.5811089-.1193957h-5.810681c-2.4753307 0-7.9548054-1.1876804-26.9090078-11.4663548-15.2179182-8.2554971-25.90953303-10.2583431-31.74050579-5.9471345-.31745137.2327875-.52717899.5846978-.58110895.9752241-.57593386 4.1649318-.40079767 8.3997271.51710116 12.5027096.17649806.7593567.91190662 1.2501754 1.67931907 1.1206823l.63912451-.1163938c.1431323-.0260624.28122568-.07423.40964981-.1425926 2.99243191-1.5398635 13.70147859 1.1178168 23.39075879 5.8394737 10.6828988 5.2019688 17.8241245 7.4230019 23.8788521 7.4230019 3.9716148-.01692 7.9271595-.5055555 11.7839689-1.455536.4116926-.0719104.7772179-.3070176 1.0139105-.6521053 1.2785214-1.8823587 2.3730545-3.8835672 3.2684825-5.9761988.2278404-.8095712-.1838522-1.6619883-.9587549-1.9853801z"/><path d="m52.2464202 62.0947758c-.2583463-.4554776-.7409922-.7367056-1.2638132-.7364327-7.0520233-.1169396-14.0591051-1.1502924-20.8457004-3.0739961-2.1985992-.6735283-4.4633852-1.1067642-6.7548638-1.2924757-2.927607.2192788-5.6257393 1.6703119-7.4259922 3.9938207-.5105642.620039-.4229961 1.5374074.1958366 2.0489669.0431712.0357505.0883852.0689084.1353696.0993372 10.7252529 6.8972515 24.362179 7.3444055 35.5146498 1.164347.3291634-.2370176.555642-.5911111.6334047-.9896881.0857976-.414269.0186576-.8455946-.1888911-1.2138792z"/></g></g></svg>